<svg viewBox="0 0 24 24" fill="none" xmlns="http://www.w3.org/2000/svg">
<path d="M12 3.5A8.5 8.5 0 0 1 20.5 12v2.5M12 3.5A8.5 8.5 0 0 0 3.5 12v1M8 20.5A8.4 8.4 0 0 1 5.5 15V12a6.5 6.5 0 0 1 13 0v3" stroke="currentColor" stroke-width="1.75" stroke-linecap="round"/>
<path d="M12 8.5A3.5 3.5 0 0 0 8.5 12v2a5.5 5.5 0 0 0 2.3 4.5M12 8.5a3.5 3.5 0 0 1 3.5 3.5v3a5.5 5.5 0 0 1-1 3.2" stroke="currentColor" stroke-width="1.75" stroke-linecap="round"/>
<path d="M12 12v3.2" stroke="currentColor" stroke-width="1.75" stroke-linecap="round"/>
</svg>
